<?xml version="1.0" encoding="UTF-8" standalone="no"?>
<svg
   xmlns:dc="http://purl.org/dc/elements/1.1/"
   xmlns:cc="http://creativecommons.org/ns#"
   xmlns:rdf="http://www.w3.org/1999/02/22-rdf-syntax-ns#"
   xmlns:svg="http://www.w3.org/2000/svg"
   xmlns="http://www.w3.org/2000/svg"
   xmlns:sodipodi="http://sodipodi.sourceforge.net/DTD/sodipodi-0.dtd"
   xmlns:inkscape="http://www.inkscape.org/namespaces/inkscape"
   aria-hidden="true"
   focusable="false"
   data-prefix="fas"
   data-icon="utensils"
   class="svg-inline--fa fa-utensils fa-w-13"
   role="img"
   viewBox="0 0 416 512"
   version="1.1"
   id="svg845"
   sodipodi:docname="utensils-solid.svg"
   inkscape:version="1.0 (4035a4fb49, 2020-05-01)">
  <rect
     id="rect2"
     fill="green"
     height="100%"
     width="100%" />
  <metadata
     id="metadata851">
    <rdf:RDF>
      <cc:Work
         rdf:about="">
        <dc:format>image/svg+xml</dc:format>
        <dc:type
           rdf:resource="http://purl.org/dc/dcmitype/StillImage" />
      </cc:Work>
    </rdf:RDF>
  </metadata>
  <defs
     id="defs849" />
  <sodipodi:namedview
     inkscape:document-rotation="0"
     bordercolor="#666666"
     borderopacity="1"
     objecttolerance="10"
     gridtolerance="10"
     guidetolerance="10"
     inkscape:pageopacity="0"
     inkscape:pageshadow="2"
     inkscape:window-width="1617"
     inkscape:window-height="1238"
     id="namedview847"
     showgrid="false"
     inkscape:zoom="1.96875"
     inkscape:cx="208"
     inkscape:cy="256"
     inkscape:window-x="0"
     inkscape:window-y="0"
     inkscape:window-maximized="0"
     inkscape:current-layer="svg845" />
  <path
     fill="currentColor"
     d="M207.9 15.2c.8 4.7 16.1 94.5 16.1 128.8 0 52.3-27.8 89.6-68.9 104.6L168 486.7c.7 13.7-10.2 25.3-24 25.3H80c-13.7 0-24.7-11.5-24-25.3l12.9-238.1C27.7 233.6 0 196.2 0 144 0 109.6 15.3 19.9 16.1 15.2 19.3-5.1 61.4-5.4 64 16.3v141.2c1.3 3.4 15.1 3.2 16 0 1.4-25.3 7.9-139.2 8-141.8 3.3-20.8 44.7-20.8 47.9 0 .2 2.7 6.6 116.5 8 141.8.9 3.2 14.8 3.4 16 0V16.3c2.6-21.6 44.8-21.4 48-1.1zm119.2 285.7l-15 185.1c-1.2 14 9.9 26 23.9 26h56c13.3 0 24-10.7 24-24V24c0-13.2-10.7-24-24-24-82.5 0-221.4 178.5-64.9 300.9z"
     id="path843"
     style="fill:#11e600;fill-opacity:1" />
  <rect
     style="fill:#07e600;fill-opacity:1"
     id="rect853"
     width="2.5396836"
     height="1.0158731"
     x="-54.857143"
     y="25.396826" />
  <rect
     style="fill:#07e600;fill-opacity:1"
     id="rect857"
     width="2.5396826"
     height="1.5238096"
     x="394.15872"
     y="-1.5238096" />
  <path
     style="fill:#ffed00;fill-opacity:1;stroke-width:0.507937"
     d="m 74.293105,510.963 c -4.309633,-1.16064 -7.776559,-3.20691 -11.047843,-6.52072 -4.742324,-4.80399 -6.827515,-9.90426 -6.851891,-16.75936 -0.0068,-1.92043 2.844724,-56.17077 6.336788,-120.55633 3.492063,-64.38555 6.349206,-117.48228 6.349206,-117.99273 0,-0.62539 -0.621252,-1.12706 -1.904762,-1.53812 C 63.76831,246.50482 54.206695,241.77133 49.447302,238.81982 40.309669,233.15317 30.332351,224.3471 23.708974,216.10294 17.456349,208.32026 10.537168,195.72882 7.114627,185.90476 -0.29338479,164.64081 -1.2901517,145.04248 3.0716768,106.4127 6.1176752,79.436338 15.224319,18.623147 17.087051,12.819535 18.17743,9.4222989 22.026062,5.3739926 26.047418,3.3942855 c 8.023079,-3.9497484 18.958956,-4.10794018 27.076361,-0.3916702 3.677816,1.6837599 7.935949,5.7874109 9.427378,9.0853617 L 63.746032,14.730159 64,86.596394 l 0.253968,71.866226 1.52381,0.76869 c 2.239456,1.1297 10.623924,1.0321 12.825397,-0.1493 0.907936,-0.48723 1.653394,-1.16572 1.656568,-1.50775 0.003,-0.34204 1.82112,-32.71212 4.039868,-71.933523 L 88.333704,14.329096 89.637567,11.6641 C 91.91519,7.0088076 96.652013,3.4941793 103.38677,1.4624591 c 4.1571,-1.25409876 13.06202,-1.25396512 17.24815,2.589e-4 7.09131,2.1246568 12.57188,6.5206283 14.18497,11.377796 0.61223,1.843482 1.72727,18.86842 4.82479,73.666752 2.67494,47.322454 4.22456,71.505354 4.61192,71.972094 1.4944,1.80064 10.74725,2.25594 14.01548,0.68965 l 1.47395,-0.70639 L 160,86.34242 c 0.2173,-61.707352 0.36066,-72.340208 0.99291,-73.644007 2.57826,-5.3167475 7.178,-9.09962 13.42231,-11.0386587 5.26112,-1.63372835 13.82707,-1.61393821 19.10859,0.044147 2.09524,0.6577807 4.77746,1.7631654 5.96048,2.4564103 3.0446,1.7841089 6.52752,5.8500024 7.43563,8.6802024 1.7918,5.584329 10.23901,61.872832 13.73746,91.540436 2.79587,23.70955 3.59575,42.43427 2.31083,54.09524 -2.02592,18.38582 -8.05761,35.95053 -17.06819,49.70384 -8.27978,12.63783 -19.57724,23.54274 -32.43834,31.31121 -4.33833,2.62048 -13.04813,6.89551 -16.63628,8.1656 -1.19198,0.42192 -1.90477,0.99808 -1.90477,1.53967 0,0.47599 2.85715,53.54453 6.34921,117.93008 3.49206,64.38556 6.34362,118.6359 6.33679,120.55633 -0.0244,6.8551 -2.10957,11.95537 -6.85189,16.75936 -3.34703,3.39056 -6.75626,5.37156 -11.26562,6.54606 -4.18675,1.09054 -71.13645,1.06794 -75.196015,-0.0254 z"
     id="path863" />
  <path
     style="fill:#fff400;fill-opacity:1;stroke-width:0.507937"
     d="m 330.2931,510.963 c -4.30963,-1.16064 -7.77655,-3.20691 -11.04784,-6.52072 -4.56638,-4.62576 -6.8248,-9.92984 -6.85189,-16.09219 -0.007,-1.55349 3.30187,-43.67561 7.35266,-93.60472 4.0508,-49.92911 7.36508,-91.53984 7.36508,-92.46829 0,-1.52505 -0.52046,-2.12003 -5.38893,-6.16048 -36.56962,-30.34998 -57.62678,-65.04252 -63.96589,-105.38644 -1.1206,-7.13185 -1.57097,-27.54407 -0.77537,-35.14249 4.44825,-42.48323 24.91339,-83.491655 57.76267,-115.745876 22.43469,-22.028295 45.9232,-35.3963113 68.24054,-38.8377402 11.78682,-1.81757761 18.6015,-0.19040483 25.25017,6.0290941 4.25794,3.9830941 6.585,8.6695541 7.27205,14.6451671 0.65971,5.737814 0.65971,462.905555 0,468.643375 -1.18388,10.29667 -8.78407,18.77134 -18.70595,20.8582 -4.30278,0.90499 -63.05293,0.71339 -66.5073,-0.21689 z"
     id="path865" />
</svg>
